HIERARCHY
ROOT Pelvis
{
	OFFSET -0.217368 -24.078917 2.858379
	CHANNELS 6 Xposition Yposition Zposition Zrotation Yrotation Xrotation 
	JOINT Left_hip
	{
		OFFSET 5.858135 -8.228005 -1.766408
		CHANNELS 3 Zrotation Yrotation Xrotation
		JOINT Left_knee
		{
			OFFSET 4.345143 -38.646942 0.803700
			CHANNELS 3 Zrotation Yrotation Xrotation
			JOINT Left_ankle
			{
				OFFSET -1.479033 -42.687447 -3.742800
				CHANNELS 3 Zrotation Yrotation Xrotation
				JOINT Left_foot
				{
					OFFSET 4.105436 -6.028605 12.204244
					CHANNELS 3 Zrotation Yrotation Xrotation
					End Site
					{
						OFFSET 0.000000 0.000000 0.000000
					}
				}
			}
		}
	}
	JOINT Right_hip
	{
		OFFSET -6.030973 -9.051328 -1.354253
		CHANNELS 3 Zrotation Yrotation Xrotation
		JOINT Right_knee
		{
			OFFSET -4.325663 -38.368790 -0.484304
			CHANNELS 3 Zrotation Yrotation Xrotation
			JOINT Right_ankle
			{
				OFFSET 1.905555 -42.004566 -3.456167
				CHANNELS 3 Zrotation Yrotation Xrotation
				JOINT Right_foot
				{
					OFFSET -3.483987 -6.210554 13.032330
					CHANNELS 3 Zrotation Yrotation Xrotation
					End Site
					{
						OFFSET 0.000000 0.000000 0.000000
					}
				}
			}
		}
	}
	JOINT Spine1
	{
		OFFSET 0.443945 12.440353 -3.838522
		CHANNELS 3 Zrotation Yrotation Xrotation
		JOINT Spine2
		{
			OFFSET 0.448844 13.795640 2.682033
			CHANNELS 3 Zrotation Yrotation Xrotation
			JOINT Spine3
			{
				OFFSET -0.226460 5.603239 0.285504
				CHANNELS 3 Zrotation Yrotation Xrotation
				JOINT Neck
				{
					OFFSET -1.339018 21.163553 -3.346758
					CHANNELS 3 Zrotation Yrotation Xrotation
					JOINT Head
					{
						OFFSET 1.011321 8.893734 5.040987
						CHANNELS 3 Zrotation Yrotation Xrotation
						End Site
						{
							OFFSET 0.000000 0.000000 0.000000
						}
					}
				}
				JOINT Left_collar
				{
					OFFSET 7.170247 11.399971 -1.889817
					CHANNELS 3 Zrotation Yrotation Xrotation
					JOINT Left_shoulder
					{
						OFFSET 12.292140 4.520507 -1.904600
						CHANNELS 3 Zrotation Yrotation Xrotation
						JOINT Left_elbow
						{
							OFFSET 25.533188 -1.564902 -2.294648
							CHANNELS 3 Zrotation Yrotation Xrotation
							JOINT Left_wrist
							{
								OFFSET 26.570929 1.269810 -0.737473
								CHANNELS 3 Zrotation Yrotation Xrotation
								JOINT Left_palm
								{
									OFFSET 8.669054 -1.063602 -1.559429
									CHANNELS 3 Zrotation Yrotation Xrotation
									End Site
									{
										OFFSET 0.000000 0.000000 0.000000
									}
								}
							}
						}
					}
				}
				JOINT Right_collar
				{
					OFFSET -8.295364 11.247234 -2.370738
					CHANNELS 3 Zrotation Yrotation Xrotation
					JOINT Right_shoulder
					{
						OFFSET -11.322830 4.685326 -0.847207
						CHANNELS 3 Zrotation Yrotation Xrotation
						JOINT Right_elbow
						{
							OFFSET -26.012751 -1.436928 -3.126872
							CHANNELS 3 Zrotation Yrotation Xrotation
							JOINT Right_wrist
							{
								OFFSET -26.910841 0.679372 -0.602677
								CHANNELS 3 Zrotation Yrotation Xrotation
								JOINT Right_palm
								{
									OFFSET -8.875370 -0.865157 -1.010708
									CHANNELS 3 Zrotation Yrotation Xrotation
									End Site
									{
										OFFSET 0.000000 0.000000 0.000000
									}
								}
							}
						}
					}
				}
			}
		}
	}
}
MOTION
Frames: 12
Frame Time: 0.016667
-0.217368 68.461349 2.858379 -1.345844 4.774818 0.957559 11.729692 -0.140757 0.079856 -4.181805 0.501791 15.183349 11.014267 22.128231 4.630429 0.000000 0.000000 0.000000 -9.662021 0.378822 -10.079346 6.192042 -0.805110 9.779412 -3.731359 -11.106852 7.158269 0.000000 0.000000 0.000000 5.126683 -0.537720 5.785478 0.883743 0.279965 -19.977151 -3.840287 -2.752149 22.377311 5.689154 -3.191139 -8.650067 0.000000 0.000000 0.000000 -4.256301 -11.322667 3.897888 -54.427842 -4.671897 -3.983552 -28.450540 -39.101477 11.732602 0.000000 0.000000 0.000000 0.000000 0.000000 0.000000 4.351082 4.889764 1.459370 53.024764 2.598922 -3.573653 20.982796 41.547511 9.020075 0.000000 0.000000 0.000000 0.000000 0.000000 0.000000 
1.776756 68.261818 1.753729 -1.442796 5.021586 0.775573 10.516861 -0.126530 1.750837 -5.136799 0.696676 11.704939 11.366565 22.754713 4.190789 0.000000 0.000000 0.000000 -10.886455 0.303811 -11.052679 7.137229 -0.984031 9.618971 -3.423050 -10.928995 9.300880 0.000000 0.000000 0.000000 4.657571 -0.486553 5.498637 1.785268 0.055139 -20.649468 -4.372701 -4.641875 23.788051 5.962207 -3.385347 -8.591231 0.000000 0.000000 0.000000 -3.976131 -11.267049 3.872851 -54.005880 -4.691230 -3.941852 -30.335571 -38.322673 12.176913 0.000000 0.000000 0.000000 0.000000 0.000000 0.000000 4.853718 5.107306 1.519953 51.597336 1.578349 -3.896430 20.138275 42.217206 8.866116 0.000000 0.000000 0.000000 0.000000 0.000000 0.000000 
3.782442 68.168869 0.562939 -1.344514 3.511011 0.863290 9.411467 -0.083046 3.238904 -5.073325 0.643234 8.063362 11.558834 23.136295 3.312478 0.000000 0.000000 0.000000 -10.288161 0.361386 -12.408929 5.523254 -0.680930 10.326532 -4.492550 -13.184941 10.334014 0.000000 0.000000 0.000000 3.962159 -0.475650 5.874115 1.752447 0.049615 -20.297553 -4.465342 -5.236249 24.846795 6.692243 -3.774536 -9.279034 0.000000 0.000000 0.000000 -5.387497 -11.278100 3.894896 -52.670247 -3.890657 -4.185031 -27.126117 -39.721214 11.429249 0.000000 0.000000 0.000000 0.000000 0.000000 0.000000 5.501270 5.510831 1.650266 52.377031 4.267844 -2.813465 17.601169 38.468693 7.101308 0.000000 0.000000 0.000000 0.000000 0.000000 0.000000 
5.577299 68.038658 -0.626660 -1.348327 2.779384 0.322582 9.801495 -0.089903 4.804653 -5.967269 0.755946 5.431610 11.973055 23.774895 4.557963 0.000000 0.000000 0.000000 -11.865305 0.223772 -13.139412 5.883837 -0.760302 10.949607 -4.193719 -12.899025 12.099060 0.000000 0.000000 0.000000 4.388907 -0.565944 6.689523 1.195773 0.216402 -20.640400 -5.391648 -6.659185 26.015210 6.097816 -3.648674 -7.456395 0.000000 0.000000 0.000000 -1.777524 -12.401702 4.257653 -54.971195 -2.825284 -4.869256 -26.286113 -40.758824 11.427664 0.000000 0.000000 0.000000 0.000000 0.000000 0.000000 2.383893 6.860620 2.278194 55.386467 3.046521 -3.542972 17.265588 37.017959 6.687174 0.000000 0.000000 0.000000 0.000000 0.000000 0.000000 
7.113121 68.107376 -1.844019 -1.122369 2.516976 0.149221 8.077320 0.017083 5.483726 -5.723238 0.694573 4.053874 11.528143 23.120361 2.637980 0.000000 0.000000 0.000000 -12.153911 0.182692 -15.410668 5.510013 -0.703893 13.083308 -3.520547 -11.555492 11.540764 0.000000 0.000000 0.000000 3.798631 -0.617297 7.912515 1.298590 0.190829 -20.711162 -5.657183 -7.202911 26.386863 6.461643 -3.685373 -8.850061 0.000000 0.000000 0.000000 -2.402990 -13.001668 4.494731 -54.576375 -3.976247 -4.310390 -22.040171 -41.584303 10.000924 0.000000 0.000000 0.000000 0.000000 0.000000 0.000000 3.250674 6.130150 1.978488 55.151059 2.792116 -3.642453 16.387410 36.242736 6.249917 0.000000 0.000000 0.000000 0.000000 0.000000 0.000000 
8.392788 68.161865 -2.943820 -1.633956 2.891363 0.190191 7.486307 0.049776 5.380322 -6.220931 0.755928 3.522207 12.089384 24.130816 2.475349 0.000000 0.000000 0.000000 -12.204481 0.160435 -17.820431 5.444337 -0.704155 14.788457 -2.316956 -9.731569 13.469219 0.000000 0.000000 0.000000 4.025209 -0.686720 8.590452 1.524711 0.115725 -20.372237 -6.067367 -8.342900 26.605029 5.852312 -3.231441 -9.132967 0.000000 0.000000 0.000000 -1.963434 -13.275914 4.582174 -53.541402 -5.191210 -3.684187 -21.100230 -42.292434 9.813397 0.000000 0.000000 0.000000 0.000000 0.000000 0.000000 2.227269 6.137164 2.017701 56.320749 1.921876 -4.134117 16.963078 37.743569 6.736602 0.000000 0.000000 0.000000 0.000000 0.000000 0.000000 
9.348710 68.484039 -3.858317 -1.877372 2.058210 0.007153 6.768996 0.079995 5.005239 -6.497427 0.792664 3.426695 13.193252 25.992524 3.217887 0.000000 0.000000 0.000000 -11.974895 0.183730 -19.318223 5.738699 -0.797983 16.818332 -3.120089 -11.390732 14.574335 0.000000 0.000000 0.000000 3.271616 -0.656494 9.061134 2.224357 -0.071293 -20.517555 -6.027408 -8.169226 27.316658 4.964743 -2.837137 -7.636881 0.000000 0.000000 0.000000 -1.904458 -12.903149 4.443861 -53.780724 -5.287066 -3.658812 -17.790313 -41.364381 8.294109 0.000000 0.000000 0.000000 0.000000 0.000000 0.000000 1.394155 6.471532 2.166935 58.069045 1.325622 -4.568204 13.911561 39.075214 5.960016 0.000000 0.000000 0.000000 0.000000 0.000000 0.000000 
9.960772 68.769089 -4.568627 -2.572142 1.257685 -0.566160 7.727476 0.034138 5.320639 -7.745284 0.932618 2.413452 13.544441 26.507150 3.931667 0.000000 0.000000 0.000000 -11.628309 0.233019 -20.162979 6.761982 -1.094833 18.371286 -4.070588 -13.106857 14.923776 0.000000 0.000000 0.000000 3.191085 -0.732503 10.261766 2.426123 -0.132433 -20.401011 -5.908030 -7.861395 27.884264 4.899443 -2.889810 -6.920057 0.000000 0.000000 0.000000 -2.017021 -11.888109 4.075425 -52.717262 -5.024683 -3.697009 -17.605899 -40.974038 8.137645 0.000000 0.000000 0.000000 0.000000 0.000000 0.000000 1.888444 6.460841 2.147149 58.173844 1.630392 -4.429436 11.919957 41.277624 5.622064 0.000000 0.000000 0.000000 0.000000 0.000000 0.000000 
10.197154 68.971588 -5.057786 -2.789166 0.868732 -1.009202 7.866167 0.038644 5.878707 -8.234150 0.967311 1.653442 13.010587 25.632670 3.623268 0.000000 0.000000 0.000000 -11.083379 0.318328 -20.592147 5.959940 -0.894769 19.706309 -3.401127 -11.917167 14.763559 0.000000 0.000000 0.000000 2.540751 -0.713386 10.967971 3.240200 -0.377881 -20.036725 -5.832429 -7.619777 27.899596 4.276072 -2.689911 -5.104754 0.000000 0.000000 0.000000 -2.221588 -11.195905 3.825059 -52.865997 -5.219495 -3.623004 -17.157108 -39.689847 7.693006 0.000000 0.000000 0.000000 0.000000 0.000000 0.000000 1.494876 6.647469 2.226862 58.515490 2.359317 -4.101608 10.600436 41.912954 5.234403 0.000000 0.000000 0.000000 0.000000 0.000000 0.000000 
10.104638 69.055702 -5.233105 -3.324889 1.045478 -0.954311 9.596287 -0.069560 6.053815 -8.908636 1.010787 0.746549 12.280734 24.373609 3.632030 0.000000 0.000000 0.000000 -10.305657 0.449976 -21.467524 5.982242 -0.917285 20.852155 -3.686307 -12.349890 14.364488 0.000000 0.000000 0.000000 2.377231 -0.713673 11.247774 3.493109 -0.488885 -19.343612 -5.063817 -7.020500 27.711454 5.077856 -3.444258 -3.896311 0.000000 0.000000 0.000000 -1.768891 -10.392009 3.529016 -53.233397 -5.417304 -3.562338 -18.821775 -38.394694 8.010963 0.000000 0.000000 0.000000 0.000000 0.000000 0.000000 1.589239 6.589883 2.203260 57.834148 3.201465 -3.640432 9.574134 42.679485 4.958593 0.000000 0.000000 0.000000 0.000000 0.000000 0.000000 
9.710499 68.967735 -5.103862 -3.182909 1.787478 -0.157985 9.370539 -0.059793 5.537100 -8.786652 0.983324 0.441934 11.721076 23.455756 2.768527 0.000000 0.000000 0.000000 -10.624674 0.401409 -22.069033 5.906609 -0.880063 19.743062 -4.156168 -13.180028 14.406957 0.000000 0.000000 0.000000 1.840354 -0.646115 11.072112 3.829277 -0.618190 -18.807297 -4.505099 -6.977157 26.862028 3.858257 -2.751786 -2.271347 0.000000 0.000000 0.000000 -2.344756 -9.376081 3.158730 -53.618621 -4.851106 -3.840771 -19.607228 -36.679438 7.889697 0.000000 0.000000 0.000000 0.000000 0.000000 0.000000 2.120272 6.751098 2.245666 56.998232 3.224115 -3.571752 8.856567 44.080215 4.867202 0.000000 0.000000 0.000000 0.000000 0.000000 0.000000 
9.033561 68.801071 -4.671296 -2.944462 3.775165 0.205049 9.990308 -0.099608 4.922139 -8.999625 1.009723 0.489675 11.246042 22.635336 2.229870 0.000000 0.000000 0.000000 -10.646345 0.398834 -22.230839 5.492005 -0.746730 18.142574 -3.670025 -12.279274 14.110025 0.000000 0.000000 0.000000 0.724685 -0.631922 13.243088 5.317972 -1.059459 -18.726553 -3.816821 -7.010665 25.387569 3.181338 -2.251430 -2.147233 0.000000 0.000000 0.000000 -2.870371 -7.435549 2.436991 -54.690910 -4.296598 -4.174774 -21.183226 -35.870188 8.226170 0.000000 0.000000 0.000000 0.000000 0.000000 0.000000 2.148287 7.251026 2.427771 56.324695 3.479787 -3.405797 7.981266 46.269177 4.788307 0.000000 0.000000 0.000000 0.000000 0.000000 0.000000 
